<?xml version="1.0" encoding="UTF-8"?>
<svg id="Capa_2" data-name="Capa 2" xmlns="http://www.w3.org/2000/svg" viewBox="0 0 375.43 152.77">
  <defs>
    <style>
      .cls-1 {
        fill: #1c3b5a;
      }
    </style>
  </defs>
  <g id="Capa_1-2" data-name="Capa 1">
    <path class="cls-1" d="M375.43,67.58l-16.55.71c4.45,40.1-24.28,77.38-63.95,83.56-39.71,6.19-77.99-19.92-86.32-59.29-1.4-6.62-.92-12.7-1.87-18.7-1.08-6.85-13.39-10.79-19.35-10.72-5.4.07-15.97,3.57-18.18,9.03-1.15,2.83-.86,12.01-1.49,16.14-4.3,28.32-25.95,53.18-53.33,61.18-51.81,15.14-99.44-24.11-98.29-77.17.04-1.87,1.48-3.56-.33-4.74H0v-15.43h20.53C26.49,31.72,43.74,13.73,63.29,5.73c41.65-17.04,88.41,5.4,101.7,47.88,4.56-1.42,8.35-3.76,13.16-4.8,11.62-2.51,21.46-.37,31.86,4.85,13.17-38.64,51.98-61.35,92.24-51.26,24.06,6.03,45.39,25.86,52.73,49.66l20.45.09v15.43ZM90.79,15.61c-43.58,1.11-71.74,47.24-53.29,86.76,18.49,39.61,72.95,46.77,101.1,13.35,33.56-39.85,4.24-101.44-47.81-100.11ZM281.44,15.61c-40.09,1.03-67.77,40.5-56.28,78.74,13.66,45.48,73.27,57.6,104.1,21.37,33.93-39.89,4.19-101.44-47.81-100.11Z"/>
  </g>
</svg>